<?xml version="1.0" encoding="UTF-8"?>
<svg id="_Слой_2" data-name="Слой 2" xmlns="http://www.w3.org/2000/svg" viewBox="0 0 154.94 76.97">
  <defs>
    <style>
      .cls-1 {
        letter-spacing: -.02em;
      }

      .cls-2 {
        letter-spacing: -.03em;
      }

      .cls-3 {
        letter-spacing: 0em;
      }

      .cls-4 {
        letter-spacing: -.05em;
      }

      .cls-5 {
        fill: none;
        stroke: #312783;
        stroke-linecap: round;
        stroke-width: 5px;
      }

      .cls-5, .cls-6 {
        stroke-miterlimit: 10;
      }

      .cls-6 {
        fill: #0f80c4;
        stroke: #0f80c4;
        stroke-width: .75px;
      }

      .cls-7 {
        letter-spacing: 0em;
      }

      .cls-8 {
        letter-spacing: 0em;
      }

      .cls-9 {
        fill: #2e2c7e;
        font-family: AAStetica-Medium, 'AA Stetica';
        font-size: 12px;
        font-weight: 500;
      }

      .cls-10 {
        letter-spacing: -.02em;
      }
    </style>
  </defs>
  <g id="_Слой_1-2" data-name="Слой 1">
    <path class="cls-5" d="M81.54,60.44l18.91-18.92c4.15-4.15,4.15-10.87,0-15.01L77.47,3.54l-22.98,22.98c-4.15,4.14-4.15,10.86,0,15.01l18.34,18.92"/>
    <path class="cls-6" d="M89.96,42.09l-10.33,10.35v-26.58c0-.6-.24-1.13-.63-1.52s-.93-.63-1.52-.63c-1.19,0-2.16.96-2.16,2.15v26.57l-10.33-10.33c-4.38-4.38-4.38-11.48,0-15.85l12.5-12.5,12.49,12.5c4.38,4.37,4.38,11.46,0,15.85Z"/>
    <text class="cls-9" transform="translate(0 74.46)"><tspan class="cls-7" x="0" y="0">Ильино</tspan><tspan class="cls-4" x="43.91" y="0">-</tspan><tspan class="cls-8" x="47.4" y="0">Заборс</tspan><tspan class="cls-10" x="91.31" y="0">к</tspan><tspan class="cls-3" x="97.57" y="0">ая ш</tspan><tspan class="cls-1" x="125.28" y="0">к</tspan><tspan class="cls-2" x="131.54" y="0">о</tspan><tspan class="cls-8" x="138.85" y="0">ла</tspan></text>
  </g>
</svg>